<?xml version="1.0" encoding="utf-8"?>
<!-- Generator: Adobe Illustrator 25.2.1, SVG Export Plug-In . SVG Version: 6.00 Build 0)  -->
<svg version="1.1" id="Layer_1" xmlns="http://www.w3.org/2000/svg" xmlns:xlink="http://www.w3.org/1999/xlink" x="0px" y="0px"
	 viewBox="0 0 210 99.6" style="enable-background:new 0 0 210 99.6;" xml:space="preserve">
<style type="text/css">
	.st0{fill:#0000FF;}
	.st1{fill:#0000FF;stroke:#0000FF;stroke-miterlimit:10;}
	.st2{font-family:'SpaceMono-Regular';}
	.st3{font-size:36.9781px;}
</style>
<g id="XMLID_222_">
	<g>
		<path id="XMLID_201_" class="st0" d="M197.8,66.6c-2.9-1.3-4.3-4.8-4.3-10.6c0-4.1,0.7-7.1,2-9.1c1.4-2,3.5-3,6.4-3
			c2.9,0,5,0.9,6.2,2.8c1.2,1.9,1.8,4.9,1.8,9v1.9h-4.8v-1.9c0-3-0.2-5-0.6-6c-0.4-1-1.3-1.5-2.7-1.5c-1.4,0-2.3,0.6-2.8,1.8
			c-0.5,1.2-0.7,3.3-0.7,6.3c0,3,0.3,5.2,1,6.4c0.7,1.2,1.8,1.8,3.5,1.8h1.4v3.9H203c-1.2,0-2.1,0.2-2.7,0.6c-1.2,0.8-1.8,3-1.8,6.8
			c0,0,0,0.1,0,0.1c0,2.8,0.3,4.6,0.9,5.5c0.6,0.9,1.5,1.3,2.6,1.3c1.1,0,1.9-0.5,2.4-1.5c0.5-1,0.8-2.8,0.8-5.4v-1h4.8v1.1
			c0,3.8-0.6,6.6-1.8,8.3s-3.3,2.7-6.2,2.7s-5-0.9-6.3-2.7s-2-4.6-2-8.3C193.6,70.7,195,67.6,197.8,66.6z"/>
		<path id="XMLID_199_" class="st0" d="M8.2,48.9c0.4-1.4,1.2-2.5,2.4-3.5c1.3-1,2.8-1.5,4.7-1.5s3.4,0.8,4.6,2.3s1.7,3.8,1.7,6.7
			v33.4h-5.7V53c0-1.4-0.3-2.5-1-3.2c-0.7-0.7-1.6-1.1-2.7-1.1s-2.1,0.4-2.9,1.2c-0.8,0.8-1.1,2-1.1,3.6v32.8H2.5V44.5h5.7V48.9z"/>
		<path id="XMLID_197_" class="st0" d="M42.7,44.5h5.8v41.9h-5.8v-4.3c-0.4,1.4-1.2,2.6-2.3,3.5c-1.1,0.9-2.6,1.4-4.4,1.4
			c-1.8,0-3.4-0.8-4.7-2.3s-2-3.9-2-7V44.5H35V77c0,3.3,1.2,4.9,3.6,4.9c1.3,0,2.4-0.5,3-1.4s1-2.2,1-3.7V44.5z"/>
		<path id="XMLID_195_" class="st0" d="M61,48.8c0.4-1.4,1.2-2.6,2.3-3.5s2.6-1.4,4.2-1.4c2.9,0,4.9,1.4,5.9,4.2
			c0.7-1.3,1.7-2.3,2.9-3.1S79,44,80.6,44c2.2,0,3.9,0.8,5.1,2.4c1.2,1.6,1.7,3.9,1.7,7v22.5h-5.7V53.1c0-2.8-1.1-4.2-3.4-4.2
			c-2.5,0-3.9,1.3-4.1,3.9v23h-5.8V53.1c0-2.8-1.1-4.2-3.3-4.2c-1.3,0-2.4,0.4-3.1,1.3c-0.7,0.9-1.1,2.1-1.1,3.6v22h-5.7V44.5H61
			V48.8z"/>
		<path id="XMLID_193_" class="st0" d="M131.1,44c0.1,0,0.1,1.2,0.1,3.6l0,1.2c-3.4,0-5.8,1.2-7.2,3.5v34.1h-5.8V44.5h5.8v4.7
			c0.5-1.6,1.3-2.9,2.6-3.8S129.2,44,131.1,44z"/>
		<path id="XMLID_190_" class="st0" d="M135.1,35.4h5.8v5.3h-5.8V35.4z M135.1,44.5h5.7v41.9h-5.7V44.5z"/>
		<path id="XMLID_188_" class="st0" d="M182.7,44.5h5.8v41.9h-5.8v-4.3c-0.4,1.4-1.2,2.6-2.3,3.5c-1.1,0.9-2.6,1.4-4.4,1.4
			c-1.8,0-3.4-0.8-4.7-2.3s-2-3.9-2-7V44.5h5.7V77c0,3.3,1.2,4.9,3.6,4.9c1.3,0,2.4-0.5,3-1.4s1-2.2,1-3.7V44.5z"/>
		<path id="XMLID_186_" class="st1" d="M157.3,84.9c-0.6,1.1-1.9,1.7-4.1,1.7c0,0,0,0-0.1,0c-1.1,0-2-0.4-2.9-1.1
			c-1.7-1.6-2.6-5.7-2.6-12.4c0-5.2,0.1-8.4,0.4-9.7c0.2-1.3,0.5-2.3,0.8-3c0.8-2.5,2.9-3.8,6.2-3.8c4.9,0,7.3,2.7,7.3,8v4.6h-4.8
			v-4.7c0-1.2-0.2-2.2-0.6-2.8c-0.4-0.7-1-1-1.9-1c-0.9,0-1.6,0.3-2,1c-0.4,0.7-0.6,1.7-0.6,3.1v12.5c0,1.7,0.2,3,0.5,3.8
			c0.4,0.8,1,1.2,1.9,1.2c1.8,0,2.8-1.5,2.8-4.5l4.2,0.4v20.8h-13.2v-4.4h8.7V84.9z"/>
		<rect id="XMLID_185_" x="135.1" y="44.5" class="st0" width="5.8" height="26.4"/>
		<rect id="XMLID_184_" x="145.4" y="44.5" class="st0" width="19.1" height="5.8"/>
		<rect id="XMLID_183_" x="55.3" y="80.6" class="st0" width="32.1" height="5.8"/>
		<path id="XMLID_180_" class="st0" d="M98.9,74.6c0,3.2,0.2,5.4,0.7,6.5c0.4,1.1,1.3,1.6,2.4,1.6c1.2,0,2-0.3,2.5-1
			c0.5-0.7,0.7-2.9,0.7-6.7v-0.8h4.8v1.4c0,4-0.6,6.9-1.6,8.7s-3.1,2.6-6.1,2.6c-3,0-5.1-0.9-6.4-2.8C94.6,82.2,94,79,94,74.4V56.8
			c0-3.2,0.3-5.8,1-7.8c1.2-3.3,3.7-5,7.7-5c3.2,0,5.5,1,6.6,2.9c1.2,1.9,1.8,4.8,1.8,8.6V58c0,4.6-0.5,7.9-1.6,9.8
			c-1.1,1.9-2.9,2.9-5.3,2.9c-2.4,0-4.2-0.7-5.2-2.1V74.6z M106.2,54.9c0-3.4-0.5-5.4-1.4-6.2c-0.5-0.4-1.2-0.6-2.2-0.6
			c-1.4,0-2.4,0.6-3,1.8s-0.8,3.2-0.8,6v8.9c0.2,0.4,0.7,0.8,1.4,1.1c0.7,0.4,1.6,0.6,2.5,0.6c1.3,0,2.2-0.6,2.7-1.8
			c0.5-1.2,0.7-3.4,0.7-6.6V54.9z"/>
		<polygon id="XMLID_179_" class="st0" points="105.1,40.6 114.3,31.4 107.2,31.4 98,40.6 		"/>
		<g id="XMLID_178_">
			<text transform="matrix(1 0 0 1 0 31.4304)" class="st2 st3">pool</text>
		</g>
	</g>
</g>
</svg>
